<svg width="18" height="20" viewBox="0 0 18 20" fill="none" xmlns="http://www.w3.org/2000/svg">
<path d="M5 6V5C5 2.791 6.791 1 9 1V1C11.209 1 13 2.791 13 5V6" stroke="#9FA5B4" stroke-width="2" stroke-linecap="round"/>
<path d="M12 12V10" stroke="#9FA5B4" stroke-width="2" stroke-linecap="round"/>
<path d="M6 12V10" stroke="#9FA5B4" stroke-width="2" stroke-linecap="round"/>
<path fill-rule="evenodd" clip-rule="evenodd" d="M1 10C1 8.114 1 7.172 1.586 6.586C2.172 6 3.114 6 5 6H13C14.886 6 15.828 6 16.414 6.586C17 7.172 17 8.114 17 10V11C17 14.771 17 16.657 15.828 17.828C14.657 19 12.771 19 9 19V19C5.229 19 3.343 19 2.172 17.828C1 16.657 1 14.771 1 11V10Z" stroke="#9FA5B4" stroke-width="2"/>
</svg>
