<svg width="20" height="20" viewBox="0 0 20 20" fill="none" xmlns="http://www.w3.org/2000/svg">
<mask id="mask0_46_3" style="mask-type:alpha" maskUnits="userSpaceOnUse" x="6" y="5" width="8" height="10">
<path fill-rule="evenodd" clip-rule="evenodd" d="M7.66701 5.14502C9.02301 5.85502 12.024 7.50602 12.598 8.50002C13.172 9.49402 13.101 12.919 13.038 14.448C13.023 14.805 12.65 15.02 12.334 14.854C10.977 14.145 7.97601 12.494 7.40201 11.5C6.82801 10.506 6.89901 7.08102 6.96301 5.55202C6.97701 5.19502 7.35001 4.98002 7.66701 5.14502Z" fill="white"/>
</mask>
<g mask="url(#mask0_46_3)">
<path fill-rule="evenodd" clip-rule="evenodd" d="M7.66701 5.14502C9.02301 5.85502 12.024 7.50602 12.598 8.50002C13.172 9.49402 13.101 12.919 13.038 14.448C13.023 14.805 12.65 15.02 12.334 14.854C10.977 14.145 7.97601 12.494 7.40201 11.5C6.82801 10.506 6.89901 7.08102 6.96301 5.55202C6.97701 5.19502 7.35001 4.98002 7.66701 5.14502Z" stroke="#9FA5B4" stroke-width="4"/>
</g>
<circle cx="10" cy="10" r="9" stroke="#9FA5B4" stroke-width="2"/>
</svg>
