<svg width="14" height="17" viewBox="0 0 14 17" fill="none" xmlns="http://www.w3.org/2000/svg">
<path fill-rule="evenodd" clip-rule="evenodd" d="M0.2745 6.12599C0 6.72299 0 7.40199 0 8.75999V13C0 14.886 0 15.828 0.5858 16.414C1.1173 16.946 1.9428 16.995 3.5 16.999V12C3.5 10.895 4.3954 9.99999 5.5 9.99999H8.5C9.6046 9.99999 10.5 10.895 10.5 12V16.999C12.0572 16.995 12.8827 16.946 13.4142 16.414C14 15.828 14 14.886 14 13V8.75999C14 7.40199 14 6.72299 13.7255 6.12599C13.4511 5.52899 12.9356 5.08799 11.9047 4.20399L10.9047 3.34699C9.0414 1.74999 8.1098 0.950989 7 0.950989C5.8902 0.950989 4.9586 1.74999 3.0953 3.34699L2.0953 4.20399C1.0644 5.08799 0.5489 5.52899 0.2745 6.12599ZM8.5 17V12H5.5V17H8.5Z" fill="#A3B484"/>
</svg>
