<svg width="24" height="24" viewBox="0 0 24 24" fill="none" xmlns="http://www.w3.org/2000/svg">
<path d="M21.406 0H18.047C17.659 0 17.344 0.315 17.344 0.703C17.344 1.091 17.659 1.406 18.047 1.406H21.406C22.061 1.406 22.594 1.939 22.594 2.594V5.953C22.594 6.341 22.909 6.656 23.297 6.656C23.685 6.656 24 6.341 24 5.953V2.594C24 1.164 22.836 0 21.406 0Z" fill="#FFA05B"/>
<path d="M0.703 6.656C1.091 6.656 1.406 6.341 1.406 5.953V2.594C1.406 1.939 1.939 1.406 2.594 1.406H5.953C6.341 1.406 6.656 1.091 6.656 0.703C6.656 0.315 6.341 0 5.953 0H2.594C1.164 0 0 1.164 0 2.594V5.953C0 6.341 0.315 6.656 0.703 6.656Z" fill="#FFA05B"/>
<path d="M5.953 22.594H2.594C1.939 22.594 1.406 22.061 1.406 21.406V18.047C1.406 17.659 1.091 17.344 0.703 17.344C0.315 17.344 0 17.659 0 18.047V21.406C0 22.836 1.164 24 2.594 24H5.953C6.341 24 6.656 23.685 6.656 23.297C6.656 22.909 6.341 22.594 5.953 22.594Z" fill="#FFA05B"/>
<path d="M23.297 17.344C22.909 17.344 22.594 17.659 22.594 18.047V21.406C22.594 22.061 22.061 22.594 21.406 22.594H18.047C17.659 22.594 17.344 22.909 17.344 23.297C17.344 23.685 17.659 24 18.047 24H21.406C22.836 24 24 22.836 24 21.406V18.047C24 17.659 23.685 17.344 23.297 17.344Z" fill="#FFA05B"/>
<path d="M16.015 5.156H18.245C18.549 5.156 18.797 5.404 18.797 5.709V7.939C18.797 8.327 19.112 8.642 19.5 8.642C19.888 8.642 20.203 8.327 20.203 7.939V5.709C20.203 4.629 19.325 3.75 18.245 3.75H16.015C15.626 3.75 15.312 4.065 15.312 4.453C15.312 4.841 15.626 5.156 16.015 5.156Z" fill="#FFA05B"/>
<path d="M3.797 5.709V7.939C3.797 8.327 4.112 8.642 4.5 8.642C4.888 8.642 5.203 8.327 5.203 7.939V5.709C5.203 5.404 5.451 5.156 5.755 5.156H7.985C8.374 5.156 8.689 4.841 8.689 4.453C8.689 4.065 8.374 3.75 7.985 3.75H5.755C4.675 3.75 3.797 4.629 3.797 5.709Z" fill="#FFA05B"/>
<path d="M7.985 18.75H5.755C5.451 18.75 5.203 18.502 5.203 18.198V15.968C5.203 15.579 4.888 15.265 4.5 15.265C4.112 15.265 3.797 15.579 3.797 15.968V18.198C3.797 19.278 4.675 20.156 5.755 20.156H7.985C8.374 20.156 8.689 19.841 8.689 19.453C8.689 19.065 8.374 18.75 7.985 18.75Z" fill="#FFA05B"/>
<path d="M20.203 18.198V15.968C20.203 15.579 19.888 15.265 19.5 15.265C19.112 15.265 18.797 15.579 18.797 15.968V18.198C18.797 18.502 18.549 18.75 18.245 18.75H16.015C15.626 18.75 15.312 19.065 15.312 19.453C15.312 19.841 15.626 20.156 16.015 20.156H18.245C19.325 20.156 20.203 19.278 20.203 18.198Z" fill="#FFA05B"/>
<path d="M0.0469971 12C0.0469971 12.388 0.361997 12.703 0.749997 12.703H23.25C23.638 12.703 23.953 12.388 23.953 12C23.953 11.612 23.638 11.297 23.25 11.297H0.749997C0.361997 11.297 0.0469971 11.612 0.0469971 12Z" fill="#FFA05B"/>
</svg>
